<svg viewBox="0 0 283 168" fill="none" xmlns="http://www.w3.org/2000/svg">
<path d="M131.562 19.3551L131.567 19.3602L131.572 19.3653C138.243 26.0371 141.916 34.9285 141.916 44.3059C141.916 63.8345 126.06 79.69 106.532 79.69H106.432C96.8559 79.69 88.0639 76.0178 81.3921 69.346C74.7202 62.6742 71.0481 53.8822 71.0481 44.3059C71.0481 24.875 86.9054 8.92188 106.432 8.92188H106.532C116.113 8.92188 124.898 12.498 131.562 19.3551ZM166.858 43.9083V43.9788L166.868 44.0485L171.677 78H147.485V10.413H184.287L189.234 45.4274C189.319 46.1546 189.711 46.7801 190.18 47.2143C190.646 47.6461 191.3 47.99 192.015 47.99C192.106 47.99 192.182 47.9791 192.233 47.97C192.286 47.9604 192.333 47.9488 192.368 47.9392C192.43 47.9224 192.491 47.9021 192.523 47.8911L192.525 47.8906H192.546L192.676 47.8554C193.375 47.6647 193.965 47.3236 194.384 46.8255C194.807 46.3216 195.003 45.7164 195.003 45.1012V45.1006V45.1001V45.0995V45.0989V45.0983V45.0977V45.0971V45.0966V45.096V45.0954V45.0948V45.0942V45.0936V45.0931V45.0925V45.0919V45.0913V45.0907V45.0902V45.0896V45.089V45.0884V45.0878V45.0872V45.0867V45.0861V45.0855V45.0849V45.0843V45.0837V45.0832V45.0826V45.082V45.0814V45.0808V45.0802V45.0797V45.0791V45.0785V45.0779V45.0773V45.0768V45.0762V45.0756V45.075V45.0744V45.0738V45.0733V45.0727V45.0721V45.0715V45.0709V45.0703V45.0698V45.0692V45.0686V45.068V45.0674V45.0669V45.0663V45.0657V45.0651V45.0645V45.0639V45.0634V45.0628V45.0622V45.0616V45.061V45.0604V45.0599V45.0593V45.0587V45.0581V45.0575V45.0569V45.0564V45.0558V45.0552V45.0546V45.054V45.0535V45.0529V45.0523V45.0517V45.0511V45.0505V45.05V45.0494V45.0488V45.0482V45.0476V45.0471V45.0465V45.0459V45.0453V45.0447V45.0441V45.0436V45.043V45.0424V45.0418V45.0412V45.0406V45.0401V45.0395V45.0389V45.0383V45.0377V45.0371V45.0366V45.036V45.0354V45.0348V45.0342V45.0337V45.0331V45.0325V45.0319V45.0313V45.0307V45.0302V45.0296V45.029V45.0284V45.0278V45.0272V45.0267V45.0261V45.0255V45.0249V45.0243V45.0238V45.0232V45.0226V45.022V45.0214V45.0208V45.0203V45.0197V45.0191V45.0185V45.0179V45.0173V45.0168V45.0162V45.0156V45.015V45.0144V45.0138V45.0133V45.0127V45.0121V45.0115V45.0109V45.0104V45.0098V45.0092V45.0086V45.008V45.0074V45.0069V45.0063V45.0057V45.0051V45.0045V45.0039V45.0034V45.0028V45.0022V45.0016V45.001V45.0005V44.9999V44.9993V44.9987V44.9981V44.9975V44.997V44.9964V44.9958V44.9952V44.9946V44.994V44.9935V44.9929V44.9923V44.9917V44.9911V44.9905V44.99V44.9894V44.9888V44.9882V44.9876V44.9871V44.9865V44.9859V44.9853V44.9847V44.9841V44.9836V44.983V44.9824V44.9818V44.9812V44.9806V44.9801V44.9795V44.9789V44.9783V44.9777V44.9771V44.9766V44.976V44.9754V44.9748V44.9742V44.9737V44.9731V44.9725V44.9719V44.9713V44.9707V44.9702V44.9696V44.969V44.9684V44.9678V44.9673V44.9667V44.9661V44.9655V44.9649V44.9643V44.9638V44.9632V44.9626V44.962V44.9614V44.9608V44.9603V44.9597V44.9591V44.9585V44.9579V44.9573V44.9568V44.9562V44.9556V44.955V44.9544V44.9539V44.9533V44.9527V44.9521V44.9515V44.9509V44.9504V44.9498V44.9492V44.9486V44.948V44.9474V44.9469V44.9463V44.9457V44.9451V44.9445V44.944V44.9434V44.9428V44.9422V44.9416V44.941V44.9405V44.9399V44.9393V44.9387V44.9381V44.9375V44.937V44.9364V44.9358V44.9352V44.9346V44.934V44.9335V44.9329V44.9323V44.9317V44.9311V44.9306V44.93V44.9294V44.9288V44.9282V44.9276V44.9271V44.9265V44.9259V44.9253V44.9247V44.9241V44.9236V44.923V44.9224V44.9218V44.9212V44.9207V44.9201V44.9195V44.9189V44.9183V44.9177V44.9172V44.9166V44.916V44.9154V44.9148V44.9142V44.9137V44.9131V44.9125V44.9119V44.9113V44.9107V44.9102V44.9096V44.909V44.9084V44.9078V44.9073V44.9067V44.9061V44.9055V44.9049V44.9043V44.9038V44.9032V44.9026V44.902V44.9014V44.9008V44.9003V44.8997V44.8991V44.8985V44.8979V44.8974V44.8968V44.8962V44.8956V44.895V44.8944V44.8939V44.8933V44.8927V44.8921V44.8915V44.8909V44.8904V44.8898V44.8892V44.8886V44.888V44.8874V44.8869V44.8863V44.8857V44.8851V44.8845V44.884V44.8834V44.8828V44.8822V44.8816V44.881V44.8805V44.8799V44.8793V44.8787V44.8781V44.8775V44.877V44.8764V44.8758V44.8752V44.8746V44.8741V44.8735V44.8729V44.8723V44.8717V44.8711V44.8706V44.87V44.8694V44.8688V44.8682V44.8676V44.8671V44.8665V44.8659V44.8653V44.8647V44.8642V44.8636V44.863V44.8624V44.8618V44.8612V44.8607V44.8601V44.8595V44.8589V44.8583V44.8577V44.8572V44.8566V44.856V44.8554V44.8548V44.8542V44.8537V44.8531V44.8525V44.8519V44.8513V44.8508V44.8502V44.8496V44.849V44.8484V44.8478V44.8473V44.8467V44.8461V44.8455V44.8449V44.8443V44.8438V44.8432V44.8426V44.842V44.8414V44.8409V44.8403V44.8397V44.8391V44.8385V44.8379V44.8374V44.8368V44.8362V44.8356V44.835V44.8344V44.8339V44.8333V44.8327V44.8321V44.8315V44.8309V44.8304V44.8298V44.8292V44.8286V44.828V44.8275V44.8269V44.8263V44.8257V44.8251V44.8245V44.824V44.8234V44.8228V44.8222V44.8216V44.821V44.8205V44.8199V44.8193V44.8187V44.8181V44.8176V44.817V44.8164V44.8158V44.8152V44.8146V44.8141V44.8135V44.8129V44.8123V44.8117V44.8111V44.8106V44.81V44.8094V44.8088V44.8082V44.8077V44.8071V44.8065V44.8059V44.8053V44.8047V44.8042V44.8036V44.803V44.7331L194.993 44.6639L190.183 10.413H214.376V78H177.476L172.631 43.3062C172.555 42.3104 172.127 41.5847 171.489 41.1381C170.889 40.7181 170.214 40.6219 169.747 40.6219C169.56 40.6219 168.887 40.6574 168.224 41.0439C167.483 41.4763 166.858 42.295 166.858 43.6101V43.6107V43.6112V43.6118V43.6124V43.613V43.6136V43.6141V43.6147V43.6153V43.6159V43.6165V43.6171V43.6176V43.6182V43.6188V43.6194V43.62V43.6206V43.6211V43.6217V43.6223V43.6229V43.6235V43.6241V43.6246V43.6252V43.6258V43.6264V43.627V43.6275V43.6281V43.6287V43.6293V43.6299V43.6305V43.631V43.6316V43.6322V43.6328V43.6334V43.6339V43.6345V43.6351V43.6357V43.6363V43.6369V43.6374V43.638V43.6386V43.6392V43.6398V43.6404V43.6409V43.6415V43.6421V43.6427V43.6433V43.6439V43.6444V43.645V43.6456V43.6462V43.6468V43.6473V43.6479V43.6485V43.6491V43.6497V43.6503V43.6508V43.6514V43.652V43.6526V43.6532V43.6538V43.6543V43.6549V43.6555V43.6561V43.6567V43.6572V43.6578V43.6584V43.659V43.6596V43.6602V43.6607V43.6613V43.6619V43.6625V43.6631V43.6637V43.6642V43.6648V43.6654V43.666V43.6666V43.6672V43.6677V43.6683V43.6689V43.6695V43.6701V43.6706V43.6712V43.6718V43.6724V43.673V43.6736V43.6741V43.6747V43.6753V43.6759V43.6765V43.6771V43.6776V43.6782V43.6788V43.6794V43.68V43.6805V43.6811V43.6817V43.6823V43.6829V43.6835V43.684V43.6846V43.6852V43.6858V43.6864V43.687V43.6875V43.6881V43.6887V43.6893V43.6899V43.6905V43.691V43.6916V43.6922V43.6928V43.6934V43.6939V43.6945V43.6951V43.6957V43.6963V43.6969V43.6974V43.698V43.6986V43.6992V43.6998V43.7004V43.7009V43.7015V43.7021V43.7027V43.7033V43.7038V43.7044V43.705V43.7056V43.7062V43.7068V43.7073V43.7079V43.7085V43.7091V43.7097V43.7103V43.7108V43.7114V43.712V43.7126V43.7132V43.7137V43.7143V43.7149V43.7155V43.7161V43.7167V43.7172V43.7178V43.7184V43.719V43.7196V43.7202V43.7207V43.7213V43.7219V43.7225V43.7231V43.7237V43.7242V43.7248V43.7254V43.726V43.7266V43.7271V43.7277V43.7283V43.7289V43.7295V43.7301V43.7306V43.7312V43.7318V43.7324V43.733V43.7336V43.7341V43.7347V43.7353V43.7359V43.7365V43.737V43.7376V43.7382V43.7388V43.7394V43.74V43.7405V43.7411V43.7417V43.7423V43.7429V43.7435V43.744V43.7446V43.7452V43.7458V43.7464V43.747V43.7475V43.7481V43.7487V43.7493V43.7499V43.7504V43.751V43.7516V43.7522V43.7528V43.7534V43.7539V43.7545V43.7551V43.7557V43.7563V43.7569V43.7574V43.758V43.7586V43.7592V43.7598V43.7603V43.7609V43.7615V43.7621V43.7627V43.7633V43.7638V43.7644V43.765V43.7656V43.7662V43.7668V43.7673V43.7679V43.7685V43.7691V43.7697V43.7703V43.7708V43.7714V43.772V43.7726V43.7732V43.7737V43.7743V43.7749V43.7755V43.7761V43.7767V43.7772V43.7778V43.7784V43.779V43.7796V43.7802V43.7807V43.7813V43.7819V43.7825V43.7831V43.7836V43.7842V43.7848V43.7854V43.786V43.7866V43.7871V43.7877V43.7883V43.7889V43.7895V43.7901V43.7906V43.7912V43.7918V43.7924V43.793V43.7936V43.7941V43.7947V43.7953V43.7959V43.7965V43.797V43.7976V43.7982V43.7988V43.7994V43.8V43.8005V43.8011V43.8017V43.8023V43.8029V43.8035V43.804V43.8046V43.8052V43.8058V43.8064V43.8069V43.8075V43.8081V43.8087V43.8093V43.8099V43.8104V43.811V43.8116V43.8122V43.8128V43.8134V43.8139V43.8145V43.8151V43.8157V43.8163V43.8168V43.8174V43.818V43.8186V43.8192V43.8198V43.8203V43.8209V43.8215V43.8221V43.8227V43.8233V43.8238V43.8244V43.825V43.8256V43.8262V43.8268V43.8273V43.8279V43.8285V43.8291V43.8297V43.8302V43.8308V43.8314V43.832V43.8326V43.8332V43.8337V43.8343V43.8349V43.8355V43.8361V43.8367V43.8372V43.8378V43.8384V43.839V43.8396V43.8401V43.8407V43.8413V43.8419V43.8425V43.8431V43.8436V43.8442V43.8448V43.8454V43.846V43.8466V43.8471V43.8477V43.8483V43.8489V43.8495V43.8501V43.8506V43.8512V43.8518V43.8524V43.853V43.8535V43.8541V43.8547V43.8553V43.8559V43.8565V43.857V43.8576V43.8582V43.8588V43.8594V43.86V43.8605V43.8611V43.8617V43.8623V43.8629V43.8634V43.864V43.8646V43.8652V43.8658V43.8664V43.8669V43.8675V43.8681V43.8687V43.8693V43.8699V43.8704V43.871V43.8716V43.8722V43.8728V43.8734V43.8739V43.8745V43.8751V43.8757V43.8763V43.8768V43.8774V43.878V43.8786V43.8792V43.8798V43.8803V43.8809V43.8815V43.8821V43.8827V43.8833V43.8838V43.8844V43.885V43.8856V43.8862V43.8867V43.8873V43.8879V43.8885V43.8891V43.8897V43.8902V43.8908V43.8914V43.892V43.8926V43.8932V43.8937V43.8943V43.8949V43.8955V43.8961V43.8966V43.8972V43.8978V43.8984V43.899V43.8996V43.9001V43.9007V43.9013V43.9019V43.9025V43.9031V43.9036V43.9042V43.9048V43.9054V43.906V43.9066V43.9071V43.9077V43.9083ZM44.0604 14.7871V33.2714C44.0604 33.6671 44.2096 34.1056 44.6159 34.3958C44.955 34.638 45.3316 34.6691 45.5575 34.6691H64.0419V53.744H45.5575C45.1811 53.744 44.7898 53.8738 44.49 54.1736C44.1903 54.4733 44.0604 54.8647 44.0604 55.241V73.626H24.9855V55.241C24.9855 55.0152 24.9545 54.6385 24.7123 54.2994C24.422 53.8931 23.9836 53.744 23.5879 53.744H5.10352V34.6691H23.5879C23.8137 34.6691 24.1904 34.638 24.5295 34.3958C24.9358 34.1056 25.0849 33.6671 25.0849 33.2714V14.7871H44.0604ZM103.543 31.482V57.1298C103.543 57.91 103.722 58.6918 104.296 59.266C104.87 59.8401 105.652 60.0186 106.432 60.0186C108.078 60.0186 109.321 58.7756 109.321 57.1298V31.482C109.321 29.8363 108.078 28.5933 106.432 28.5933C104.786 28.5933 103.543 29.8363 103.543 31.482ZM249.987 58.9251H275.786L273.267 78H221.363V10.413H275.786L273.267 29.4879H249.987C248.341 29.4879 247.098 30.7309 247.098 32.3767C247.098 34.0225 248.341 35.2655 249.987 35.2655H269.222L266.808 53.1475H249.987C248.341 53.1475 247.098 54.3905 247.098 56.0363C247.098 57.6821 248.341 58.9251 249.987 58.9251Z" fill="#1A1A1A" stroke="#1A1A1A" stroke-width="2"/>
<path d="M136.562 16.3551L136.567 16.3602L136.572 16.3653C143.243 23.0371 146.916 31.9285 146.916 41.3059C146.916 60.8345 131.06 76.69 111.532 76.69H111.432C101.856 76.69 93.0639 73.0178 86.3921 66.346C79.7202 59.6742 76.0481 50.8822 76.0481 41.3059C76.0481 21.875 91.9054 5.92188 111.432 5.92188H111.532C121.113 5.92188 129.898 9.49802 136.562 16.3551ZM171.858 40.9083V40.9788L171.868 41.0485L176.677 75H152.485V7.41302H189.287L194.234 42.4274C194.319 43.1546 194.711 43.7801 195.18 44.2143C195.646 44.6461 196.3 44.99 197.015 44.99C197.106 44.99 197.182 44.9791 197.233 44.97C197.286 44.9604 197.333 44.9488 197.368 44.9392C197.43 44.9224 197.491 44.9021 197.523 44.8911L197.525 44.8906H197.546L197.676 44.8554C198.375 44.6647 198.965 44.3236 199.384 43.8255C199.807 43.3216 200.003 42.7164 200.003 42.1012V42.1006V42.1001V42.0995V42.0989V42.0983V42.0977V42.0971V42.0966V42.096V42.0954V42.0948V42.0942V42.0936V42.0931V42.0925V42.0919V42.0913V42.0907V42.0902V42.0896V42.089V42.0884V42.0878V42.0872V42.0867V42.0861V42.0855V42.0849V42.0843V42.0837V42.0832V42.0826V42.082V42.0814V42.0808V42.0802V42.0797V42.0791V42.0785V42.0779V42.0773V42.0768V42.0762V42.0756V42.075V42.0744V42.0738V42.0733V42.0727V42.0721V42.0715V42.0709V42.0703V42.0698V42.0692V42.0686V42.068V42.0674V42.0669V42.0663V42.0657V42.0651V42.0645V42.0639V42.0634V42.0628V42.0622V42.0616V42.061V42.0604V42.0599V42.0593V42.0587V42.0581V42.0575V42.0569V42.0564V42.0558V42.0552V42.0546V42.054V42.0535V42.0529V42.0523V42.0517V42.0511V42.0505V42.05V42.0494V42.0488V42.0482V42.0476V42.0471V42.0465V42.0459V42.0453V42.0447V42.0441V42.0436V42.043V42.0424V42.0418V42.0412V42.0406V42.0401V42.0395V42.0389V42.0383V42.0377V42.0371V42.0366V42.036V42.0354V42.0348V42.0342V42.0337V42.0331V42.0325V42.0319V42.0313V42.0307V42.0302V42.0296V42.029V42.0284V42.0278V42.0272V42.0267V42.0261V42.0255V42.0249V42.0243V42.0238V42.0232V42.0226V42.022V42.0214V42.0208V42.0203V42.0197V42.0191V42.0185V42.0179V42.0173V42.0168V42.0162V42.0156V42.015V42.0144V42.0138V42.0133V42.0127V42.0121V42.0115V42.0109V42.0104V42.0098V42.0092V42.0086V42.008V42.0074V42.0069V42.0063V42.0057V42.0051V42.0045V42.0039V42.0034V42.0028V42.0022V42.0016V42.001V42.0005V41.9999V41.9993V41.9987V41.9981V41.9975V41.997V41.9964V41.9958V41.9952V41.9946V41.994V41.9935V41.9929V41.9923V41.9917V41.9911V41.9905V41.99V41.9894V41.9888V41.9882V41.9876V41.9871V41.9865V41.9859V41.9853V41.9847V41.9841V41.9836V41.983V41.9824V41.9818V41.9812V41.9806V41.9801V41.9795V41.9789V41.9783V41.9777V41.9771V41.9766V41.976V41.9754V41.9748V41.9742V41.9737V41.9731V41.9725V41.9719V41.9713V41.9707V41.9702V41.9696V41.969V41.9684V41.9678V41.9673V41.9667V41.9661V41.9655V41.9649V41.9643V41.9638V41.9632V41.9626V41.962V41.9614V41.9608V41.9603V41.9597V41.9591V41.9585V41.9579V41.9573V41.9568V41.9562V41.9556V41.955V41.9544V41.9539V41.9533V41.9527V41.9521V41.9515V41.9509V41.9504V41.9498V41.9492V41.9486V41.948V41.9474V41.9469V41.9463V41.9457V41.9451V41.9445V41.944V41.9434V41.9428V41.9422V41.9416V41.941V41.9405V41.9399V41.9393V41.9387V41.9381V41.9375V41.937V41.9364V41.9358V41.9352V41.9346V41.934V41.9335V41.9329V41.9323V41.9317V41.9311V41.9306V41.93V41.9294V41.9288V41.9282V41.9276V41.9271V41.9265V41.9259V41.9253V41.9247V41.9241V41.9236V41.923V41.9224V41.9218V41.9212V41.9207V41.9201V41.9195V41.9189V41.9183V41.9177V41.9172V41.9166V41.916V41.9154V41.9148V41.9142V41.9137V41.9131V41.9125V41.9119V41.9113V41.9107V41.9102V41.9096V41.909V41.9084V41.9078V41.9073V41.9067V41.9061V41.9055V41.9049V41.9043V41.9038V41.9032V41.9026V41.902V41.9014V41.9008V41.9003V41.8997V41.8991V41.8985V41.8979V41.8974V41.8968V41.8962V41.8956V41.895V41.8944V41.8939V41.8933V41.8927V41.8921V41.8915V41.8909V41.8904V41.8898V41.8892V41.8886V41.888V41.8874V41.8869V41.8863V41.8857V41.8851V41.8845V41.884V41.8834V41.8828V41.8822V41.8816V41.881V41.8805V41.8799V41.8793V41.8787V41.8781V41.8775V41.877V41.8764V41.8758V41.8752V41.8746V41.8741V41.8735V41.8729V41.8723V41.8717V41.8711V41.8706V41.87V41.8694V41.8688V41.8682V41.8676V41.8671V41.8665V41.8659V41.8653V41.8647V41.8642V41.8636V41.863V41.8624V41.8618V41.8612V41.8607V41.8601V41.8595V41.8589V41.8583V41.8577V41.8572V41.8566V41.856V41.8554V41.8548V41.8542V41.8537V41.8531V41.8525V41.8519V41.8513V41.8508V41.8502V41.8496V41.849V41.8484V41.8478V41.8473V41.8467V41.8461V41.8455V41.8449V41.8443V41.8438V41.8432V41.8426V41.842V41.8414V41.8409V41.8403V41.8397V41.8391V41.8385V41.8379V41.8374V41.8368V41.8362V41.8356V41.835V41.8344V41.8339V41.8333V41.8327V41.8321V41.8315V41.8309V41.8304V41.8298V41.8292V41.8286V41.828V41.8275V41.8269V41.8263V41.8257V41.8251V41.8245V41.824V41.8234V41.8228V41.8222V41.8216V41.821V41.8205V41.8199V41.8193V41.8187V41.8181V41.8176V41.817V41.8164V41.8158V41.8152V41.8146V41.8141V41.8135V41.8129V41.8123V41.8117V41.8111V41.8106V41.81V41.8094V41.8088V41.8082V41.8077V41.8071V41.8065V41.8059V41.8053V41.8047V41.8042V41.8036V41.803V41.7331L199.993 41.6639L195.183 7.41302H219.376V75H182.476L177.631 40.3062C177.555 39.3104 177.127 38.5847 176.489 38.1381C175.889 37.7181 175.214 37.6219 174.747 37.6219C174.56 37.6219 173.887 37.6574 173.224 38.0439C172.483 38.4763 171.858 39.295 171.858 40.6101V40.6107V40.6112V40.6118V40.6124V40.613V40.6136V40.6141V40.6147V40.6153V40.6159V40.6165V40.6171V40.6176V40.6182V40.6188V40.6194V40.62V40.6206V40.6211V40.6217V40.6223V40.6229V40.6235V40.6241V40.6246V40.6252V40.6258V40.6264V40.627V40.6275V40.6281V40.6287V40.6293V40.6299V40.6305V40.631V40.6316V40.6322V40.6328V40.6334V40.6339V40.6345V40.6351V40.6357V40.6363V40.6369V40.6374V40.638V40.6386V40.6392V40.6398V40.6404V40.6409V40.6415V40.6421V40.6427V40.6433V40.6439V40.6444V40.645V40.6456V40.6462V40.6468V40.6473V40.6479V40.6485V40.6491V40.6497V40.6503V40.6508V40.6514V40.652V40.6526V40.6532V40.6538V40.6543V40.6549V40.6555V40.6561V40.6567V40.6572V40.6578V40.6584V40.659V40.6596V40.6602V40.6607V40.6613V40.6619V40.6625V40.6631V40.6637V40.6642V40.6648V40.6654V40.666V40.6666V40.6672V40.6677V40.6683V40.6689V40.6695V40.6701V40.6706V40.6712V40.6718V40.6724V40.673V40.6736V40.6741V40.6747V40.6753V40.6759V40.6765V40.6771V40.6776V40.6782V40.6788V40.6794V40.68V40.6805V40.6811V40.6817V40.6823V40.6829V40.6835V40.684V40.6846V40.6852V40.6858V40.6864V40.687V40.6875V40.6881V40.6887V40.6893V40.6899V40.6905V40.691V40.6916V40.6922V40.6928V40.6934V40.6939V40.6945V40.6951V40.6957V40.6963V40.6969V40.6974V40.698V40.6986V40.6992V40.6998V40.7004V40.7009V40.7015V40.7021V40.7027V40.7033V40.7038V40.7044V40.705V40.7056V40.7062V40.7068V40.7073V40.7079V40.7085V40.7091V40.7097V40.7103V40.7108V40.7114V40.712V40.7126V40.7132V40.7137V40.7143V40.7149V40.7155V40.7161V40.7167V40.7172V40.7178V40.7184V40.719V40.7196V40.7202V40.7207V40.7213V40.7219V40.7225V40.7231V40.7237V40.7242V40.7248V40.7254V40.726V40.7266V40.7271V40.7277V40.7283V40.7289V40.7295V40.7301V40.7306V40.7312V40.7318V40.7324V40.733V40.7336V40.7341V40.7347V40.7353V40.7359V40.7365V40.737V40.7376V40.7382V40.7388V40.7394V40.74V40.7405V40.7411V40.7417V40.7423V40.7429V40.7435V40.744V40.7446V40.7452V40.7458V40.7464V40.747V40.7475V40.7481V40.7487V40.7493V40.7499V40.7504V40.751V40.7516V40.7522V40.7528V40.7534V40.7539V40.7545V40.7551V40.7557V40.7563V40.7569V40.7574V40.758V40.7586V40.7592V40.7598V40.7603V40.7609V40.7615V40.7621V40.7627V40.7633V40.7638V40.7644V40.765V40.7656V40.7662V40.7668V40.7673V40.7679V40.7685V40.7691V40.7697V40.7703V40.7708V40.7714V40.772V40.7726V40.7732V40.7737V40.7743V40.7749V40.7755V40.7761V40.7767V40.7772V40.7778V40.7784V40.779V40.7796V40.7802V40.7807V40.7813V40.7819V40.7825V40.7831V40.7836V40.7842V40.7848V40.7854V40.786V40.7866V40.7871V40.7877V40.7883V40.7889V40.7895V40.7901V40.7906V40.7912V40.7918V40.7924V40.793V40.7936V40.7941V40.7947V40.7953V40.7959V40.7965V40.797V40.7976V40.7982V40.7988V40.7994V40.8V40.8005V40.8011V40.8017V40.8023V40.8029V40.8035V40.804V40.8046V40.8052V40.8058V40.8064V40.8069V40.8075V40.8081V40.8087V40.8093V40.8099V40.8104V40.811V40.8116V40.8122V40.8128V40.8134V40.8139V40.8145V40.8151V40.8157V40.8163V40.8168V40.8174V40.818V40.8186V40.8192V40.8198V40.8203V40.8209V40.8215V40.8221V40.8227V40.8233V40.8238V40.8244V40.825V40.8256V40.8262V40.8268V40.8273V40.8279V40.8285V40.8291V40.8297V40.8302V40.8308V40.8314V40.832V40.8326V40.8332V40.8337V40.8343V40.8349V40.8355V40.8361V40.8367V40.8372V40.8378V40.8384V40.839V40.8396V40.8401V40.8407V40.8413V40.8419V40.8425V40.8431V40.8436V40.8442V40.8448V40.8454V40.846V40.8466V40.8471V40.8477V40.8483V40.8489V40.8495V40.8501V40.8506V40.8512V40.8518V40.8524V40.853V40.8535V40.8541V40.8547V40.8553V40.8559V40.8565V40.857V40.8576V40.8582V40.8588V40.8594V40.86V40.8605V40.8611V40.8617V40.8623V40.8629V40.8634V40.864V40.8646V40.8652V40.8658V40.8664V40.8669V40.8675V40.8681V40.8687V40.8693V40.8699V40.8704V40.871V40.8716V40.8722V40.8728V40.8734V40.8739V40.8745V40.8751V40.8757V40.8763V40.8768V40.8774V40.878V40.8786V40.8792V40.8798V40.8803V40.8809V40.8815V40.8821V40.8827V40.8833V40.8838V40.8844V40.885V40.8856V40.8862V40.8867V40.8873V40.8879V40.8885V40.8891V40.8897V40.8902V40.8908V40.8914V40.892V40.8926V40.8932V40.8937V40.8943V40.8949V40.8955V40.8961V40.8966V40.8972V40.8978V40.8984V40.899V40.8996V40.9001V40.9007V40.9013V40.9019V40.9025V40.9031V40.9036V40.9042V40.9048V40.9054V40.906V40.9066V40.9071V40.9077V40.9083ZM49.0604 11.7871V30.2714C49.0604 30.6671 49.2096 31.1056 49.6159 31.3958C49.955 31.638 50.3316 31.6691 50.5575 31.6691H69.0419V50.744H50.5575C50.1811 50.744 49.7898 50.8738 49.49 51.1736C49.1903 51.4733 49.0604 51.8647 49.0604 52.241V70.626H29.9855V52.241C29.9855 52.0152 29.9545 51.6385 29.7123 51.2994C29.422 50.8931 28.9836 50.744 28.5879 50.744H10.1035V31.6691H28.5879C28.8137 31.6691 29.1904 31.638 29.5295 31.3958C29.9358 31.1056 30.0849 30.6671 30.0849 30.2714V11.7871H49.0604ZM108.543 28.482V54.1298C108.543 54.91 108.722 55.6918 109.296 56.266C109.87 56.8401 110.652 57.0186 111.432 57.0186C113.078 57.0186 114.321 55.7756 114.321 54.1298V28.482C114.321 26.8363 113.078 25.5933 111.432 25.5933C109.786 25.5933 108.543 26.8363 108.543 28.482ZM254.987 55.9251H280.786L278.267 75H226.363V7.41302H280.786L278.267 26.4879H254.987C253.341 26.4879 252.098 27.7309 252.098 29.3767C252.098 31.0225 253.341 32.2655 254.987 32.2655H274.222L271.808 50.1475H254.987C253.341 50.1475 252.098 51.3905 252.098 53.0363C252.098 54.6821 253.341 55.9251 254.987 55.9251Z" fill="#FC88AB" stroke="#1A1A1A" stroke-width="2"/>
<path d="M107.36 117.244L118.728 118.798C126.66 119.861 132.467 126.812 132.467 134.581C132.467 144.231 124.534 152 115.048 152H83.6445V129.102L108.505 132.619C108.587 132.619 108.669 132.619 108.751 132.619C110.223 132.619 110.304 131.228 110.304 131.065C110.304 130.492 109.977 129.675 108.914 129.593L97.3834 127.957C89.6144 126.894 83.6445 119.943 83.6445 112.174C83.6445 102.524 91.4135 94.7549 101.063 94.7549H132.467V117.571L107.769 114.137C107.606 114.137 107.524 114.055 107.36 114.055C106.216 114.055 106.052 115.609 106.052 115.69C106.052 116.263 106.379 116.999 107.36 117.244Z" fill="#1A1A1A"/>
<path d="M159.594 138.343C158.695 138.343 158.04 138.997 158.04 139.897V152H134.079L141.685 94.7549H177.504L185.109 152H161.148V139.897C161.148 138.997 160.494 138.343 159.594 138.343ZM158.04 113.237V120.188C158.04 121.251 158.531 121.742 159.594 121.742C160.494 121.742 161.148 121.088 161.148 120.188V113.237C161.148 112.337 160.494 111.683 159.594 111.683C158.531 111.683 158.04 112.174 158.04 113.237Z" fill="#1A1A1A"/>
<path d="M210.381 134.663H228.209L225.837 152H187.156V94.7549H209.972V134.336C209.972 134.581 210.136 134.663 210.381 134.663Z" fill="#1A1A1A"/>
<path d="M255.051 134.663H277.213L274.923 152H230.681V94.7549H277.213L274.923 112.092H255.051C254.151 112.092 253.497 112.746 253.497 113.646C253.497 114.545 254.151 115.2 255.051 115.2H271.816L269.607 131.555H255.051C254.151 131.555 253.497 132.21 253.497 133.109C253.497 134.009 254.151 134.663 255.051 134.663Z" fill="#1A1A1A"/>
</svg>
