<svg width="24" height="24" viewBox="0 0 24 24" fill="none" xmlns="http://www.w3.org/2000/svg">
<path d="M9.91667 8.66667H3.25C2.56083 8.66667 2 8.10583 2 7.41667V3.25C2 2.56083 2.56083 2 3.25 2H9.91667C10.6058 2 11.1667 2.56083 11.1667 3.25V7.41667C11.1667 8.10583 10.6058 8.66667 9.91667 8.66667ZM3.25 2.83333C3.02083 2.83333 2.83333 3.02 2.83333 3.25V7.41667C2.83333 7.64667 3.02083 7.83333 3.25 7.83333H9.91667C10.1458 7.83333 10.3333 7.64667 10.3333 7.41667V3.25C10.3333 3.02 10.1458 2.83333 9.91667 2.83333H3.25Z" fill="#6A6A6A" stroke="#6A6A6A" stroke-width="0.3" stroke-linejoin="round"/>
<path d="M9.91667 22H3.25C2.56083 22 2 21.4392 2 20.75V11.5833C2 10.8942 2.56083 10.3333 3.25 10.3333H9.91667C10.6058 10.3333 11.1667 10.8942 11.1667 11.5833V20.75C11.1667 21.4392 10.6058 22 9.91667 22ZM3.25 11.1667C3.02083 11.1667 2.83333 11.3533 2.83333 11.5833V20.75C2.83333 20.98 3.02083 21.1667 3.25 21.1667H9.91667C10.1458 21.1667 10.3333 20.98 10.3333 20.75V11.5833C10.3333 11.3533 10.1458 11.1667 9.91667 11.1667H3.25Z" fill="#6A6A6A" stroke="#6A6A6A" stroke-width="0.3" stroke-linejoin="round"/>
<path d="M20.75 22H14.0834C13.3942 22 12.8334 21.4392 12.8334 20.75V16.5833C12.8334 15.8942 13.3942 15.3333 14.0834 15.3333H20.75C21.4392 15.3333 22 15.8942 22 16.5833V20.75C22 21.4392 21.4392 22 20.75 22ZM14.0834 16.1667C13.8542 16.1667 13.6667 16.3533 13.6667 16.5833V20.75C13.6667 20.98 13.8542 21.1667 14.0834 21.1667H20.75C20.9792 21.1667 21.1667 20.98 21.1667 20.75V16.5833C21.1667 16.3533 20.9792 16.1667 20.75 16.1667H14.0834Z" fill="#6A6A6A" stroke="#6A6A6A" stroke-width="0.3" stroke-linejoin="round"/>
<path d="M20.75 13.6667H14.0834C13.3942 13.6667 12.8334 13.1058 12.8334 12.4167V3.25C12.8334 2.56083 13.3942 2 14.0834 2H20.75C21.4392 2 22 2.56083 22 3.25V12.4167C22 13.1058 21.4392 13.6667 20.75 13.6667ZM14.0834 2.83333C13.8542 2.83333 13.6667 3.02 13.6667 3.25V12.4167C13.6667 12.6467 13.8542 12.8333 14.0834 12.8333H20.75C20.9792 12.8333 21.1667 12.6467 21.1667 12.4167V3.25C21.1667 3.02 20.9792 2.83333 20.75 2.83333H14.0834Z" fill="#6A6A6A" stroke="#6A6A6A" stroke-width="0.3" stroke-linejoin="round"/>
</svg>
