<svg width="24" height="24" viewBox="0 0 24 24" fill="none" xmlns="http://www.w3.org/2000/svg">
<path d="M12 21.1667C11.6483 21.1667 11.3142 21.0192 11.0825 20.7625C10.7667 20.5317 2 13.8092 2 8.25001C2 5.26334 4.43 2.83334 7.41667 2.83334C9.29917 2.83334 11.0217 3.80334 12 5.35918C12.9783 3.80334 14.7008 2.83334 16.5833 2.83334C19.57 2.83334 22 5.26334 22 8.25001C22 13.8092 13.2333 20.5317 12.86 20.815C12.6858 21.0192 12.3517 21.1667 12 21.1667ZM7.41667 3.66668C4.88917 3.66668 2.83333 5.72251 2.83333 8.25001C2.83333 13.4 11.5558 20.085 11.6433 20.1517C11.9083 20.4225 12.1483 20.37 12.2992 20.2042C12.4442 20.085 21.1667 13.3975 21.1667 8.25001C21.1667 5.72251 19.1108 3.66668 16.5833 3.66668C14.7558 3.66668 13.1067 4.74584 12.3817 6.41584C12.25 6.72001 11.7492 6.72001 11.6175 6.41584C10.8933 4.74584 9.24417 3.66668 7.41667 3.66668Z" fill="#6A6A6A" stroke="#6A6A6A" stroke-width="0.3" stroke-linejoin="round"/>
</svg>
